Coordinates
version=1
nRows=7
nColumns=40
inDegrees=yes

Units are S.I. units (second, meters, Newtons, ...)
If the header above contains a line with 'inDegrees', this indicates whether rotational values are in degrees (yes) or radians (no).

endheader
time	pelvis_tilt	pelvis_list	pelvis_rotation	pelvis_tx	pelvis_ty	pelvis_tz	hip_flexion_r	hip_adduction_r	hip_rotation_r	knee_angle_r	knee_angle_r_beta	ankle_angle_r	subtalar_angle_r	mtp_angle_r	hip_flexion_l	hip_adduction_l	hip_rotation_l	knee_angle_l	knee_angle_l_beta	ankle_angle_l	subtalar_angle_l	mtp_angle_l	lumbar_extension	lumbar_bending	lumbar_rotation	arm_flex_r	arm_add_r	arm_rot_r	elbow_flex_r	pro_sup_r	wrist_flex_r	wrist_dev_r	arm_flex_l	arm_add_l	arm_rot_l	elbow_flex_l	pro_sup_l	wrist_flex_l	wrist_dev_l
      3.09000000	    -15.99443153	     -1.54252285	      0.50539313	      0.17800451	      0.88505435	     -1.13210960	     23.46582892	    -23.78647233	    -37.83882229	     13.58199041	      0.23705045	     -5.26150304	     11.12112373	      0.00000000	     25.87712022	    -26.82132279	    -31.29447312	     13.96974546	      0.24381805	     -5.95703794	     14.91071248	      0.00000000	      0.00000000	      0.00000000	      0.00000000	     43.04534313	    -16.14894897	     43.04534313	     75.89604639	     44.54303565	      0.00000000	      0.00000000	     43.04534313	    -16.14894897	     43.04534313	     75.89604639	     44.54303565	      0.00000000	      0.00000000
      3.09500000	    -16.34590531	     -1.53306126	      0.58578964	      0.17709763	      0.88410151	     -1.13217405	     24.13724908	    -24.01701564	    -37.76519203	     14.18015122	      0.24749033	     -5.10965235	     10.82433668	      0.00000000	     26.56176456	    -26.83283001	    -30.92688284	     14.30403407	      0.24965249	     -5.91609590	     14.51255200	      0.00000000	      0.00000000	      0.00000000	      0.00000000	     43.13296469	    -16.06356198	     43.13296469	     75.77214602	     44.67707099	      0.00000000	      0.00000000	     43.13296469	    -16.06356198	     43.13296469	     75.77214602	     44.67707099	      0.00000000	      0.00000000
      3.10000000	    -16.70707731	     -1.55073366	      0.61970551	      0.17621143	      0.88305751	     -1.13217026	     24.85430969	    -24.21307989	    -37.62623169	     14.82440998	      0.25873476	     -4.94740924	     10.51469121	      0.00000000	     27.26772111	    -26.93022179	    -30.65517444	     14.72895493	      0.25706876	     -5.79501115	     14.24972393	      0.00000000	      0.00000000	      0.00000000	      0.00000000	     43.21624605	    -15.98640004	     43.21624605	     75.66999888	     44.76636949	      0.00000000	      0.00000000	     43.21624605	    -15.98640004	     43.21624605	     75.66999888	     44.76636949	      0.00000000	      0.00000000
      3.10500000	    -17.06964834	     -1.54701594	      0.61902583	      0.17525882	      0.88194505	     -1.13205510	     25.63225239	    -24.43223708	    -37.43567106	     15.53730474	      0.27117712	     -4.72933879	     10.21244997	      0.00000000	     27.98234782	    -27.05036191	    -30.46299998	     15.21716628	      0.26558965	     -5.66499793	     14.05915447	      0.00000000	      0.00000000	      0.00000000	      0.00000000	     43.29752947	    -15.91356952	     43.29752947	     75.58029208	     44.83102315	      0.00000000	      0.00000000	     43.29752947	    -15.91356952	     43.29752947	     75.58029208	     44.83102315	      0.00000000	      0.00000000
      3.11000000	    -17.76198882	     -1.37566384	      0.37488656	      0.17430911	      0.88008470	     -1.13132016	     27.01002685	    -24.73367337	    -36.79735403	     16.43894552	      0.28691372	     -4.32548250	      9.72396248	      0.00000000	     28.88720426	    -27.17400370	    -30.65728132	     15.75413155	      0.27496147	     -5.43323584	     14.06726901	      0.00000000	      0.00000000	      0.00000000	      0.00000000	     43.37487007	    -15.84658410	     43.37487007	     75.50361910	     44.87643181	      0.00000000	      0.00000000	     43.37487007	    -15.84658410	     43.37487007	     75.50361910	     44.87643181	      0.00000000	      0.00000000
      3.11500000	    -17.86286840	     -1.41475619	      0.68280316	      0.17324099	      0.87942858	     -1.13182915	     27.31603910	    -25.07080813	    -37.03789539	     17.09433639	      0.29835245	     -4.17869280	      9.62358099	      0.00000000	     29.50325578	    -27.11562846	    -29.97540280	     16.18898481	      0.28255109	     -5.42977199	     13.48628026	      0.00000000	      0.00000000	      0.00000000	      0.00000000	     43.44489662	    -15.78655534	     43.44489662	     75.43747637	     44.91090287	      0.00000000	      0.00000000	     43.44489662	    -15.78655534	     43.44489662	     75.43747637	     44.91090287	      0.00000000	      0.00000000
      3.12000000	    -18.28117966	     -1.45092494	      0.71868395	      0.17215401	      0.87804572	     -1.13172375	     28.15711187	    -25.27581596	    -36.85223861	     17.83655622	      0.31130663	     -3.97892107	      9.27506489	      0.00000000	     30.37619234	    -27.27910220	    -29.66529570	     16.78267171	      0.29291288	     -5.26161930	     13.21088055	      0.00000000	      0.00000000	      0.00000000	      0.00000000	     43.52653205	    -15.72048930	     43.52653205	     75.37181129	     44.93804867	      0.00000000	      0.00000000	     43.52653205	    -15.72048930	     43.52653205	     75.37181129	     44.93804867	      0.00000000	      0.00000000
